<?xml version="1.0" encoding="UTF-8" standalone="no"?>
<!DOCTYPE svg PUBLIC "-//W3C//DTD SVG 20010904//EN" "http://www.w3.org/TR/2001/REC-SVG-20010904/DTD/svg10.dtd">
<svg version="1.0" xmlns="http://www.w3.org/2000/svg" width="158.000000pt" height="114.000000pt" viewBox="0 0 158.000000 114.000000" preserveAspectRatio="xMidYMid meet">
<metadata>
Created by potrace 1.16, written by Peter Selinger 2001-2019
</metadata>
<g transform="translate(0.000000,114.000000) scale(0.100000,-0.100000)" fill="#000000" stroke="none">
<path d="M285 855 l-290 -285 75 -73 c41 -40 173 -169 292 -286 l217 -213 30 22 c17 12 31 27 31 33 1 7 -104 114 -232 239 l-233 227 703 1 702 0 0 45 0 45 -707 0 -708 1 238 232 c130 128 237 237 237 243 0 13 -43 54 -56 53 -5 0 -139 -128 -299 -284z"/>
</g>
</svg>